<svg xmlns="http://www.w3.org/2000/svg" viewBox="0 0 200 200">
  <path id="blob-1" d="M 147.04 100.00 C 147.11 114.06, 150.25 133.82, 142.41 142.41 C 134.57 151.01, 112.72 153.00, 100.00 151.58 C 87.28 150.15, 77.26 142.48, 66.12 133.88 C 54.97 125.29, 35.19 113.37, 33.11 100.00 C 31.03 86.63, 42.51 64.64, 53.66 53.66 C 64.81 42.68, 85.28 33.42, 100.00 34.15 C 114.72 34.87, 134.14 47.05, 141.98 58.02 C 149.82 69.00, 146.97 85.94, 147.04 100.00 Z" fill="#2B5240" />
  <path id="blob-2" d="M 166.99 100.00 C 167.64 113.08, 152.38 132.41, 141.21 141.21 C 130.05 150.02, 112.88 153.66, 100.00 152.80 C 87.12 151.95, 73.89 144.90, 63.91 136.09 C 53.93 127.29, 41.70 113.61, 40.12 100.00 C 38.54 86.39, 44.44 64.97, 54.42 54.42 C 64.40 43.87, 86.19 35.32, 100.00 36.70 C 113.81 38.09, 126.10 52.18, 137.27 62.73 C 148.43 73.28, 166.33 86.92, 166.99 100.00 Z" fill="#2B5240" />
  <path id="blob-3" d="M 156.46 100.00 C 156.72 115.68, 157.22 139.27, 147.81 147.81 C 138.40 156.35, 114.90 152.28, 100.00 151.25 C 85.10 150.21, 67.71 150.13, 58.41 141.59 C 49.11 133.05, 42.92 112.57, 44.21 100.00 C 45.51 87.43, 56.88 74.42, 66.18 66.18 C 75.48 57.94, 86.65 52.63, 100.00 50.55 C 113.35 48.48, 136.88 45.47, 146.29 53.71 C 155.70 61.95, 156.21 84.32, 156.46 100.00 Z" fill="#2B5240" />
  <path id="blob-4" d="M 160.07 100.00 C 159.50 111.25, 142.04 122.42, 132.03 132.03 C 122.02 141.64, 111.65 156.67, 100.00 157.64 C 88.35 158.61, 70.55 147.45, 62.16 137.84 C 53.77 128.24, 49.15 112.11, 49.66 100.00 C 50.16 87.89, 56.80 75.58, 65.19 65.19 C 73.58 54.80, 88.29 37.76, 100.00 37.65 C 111.71 37.55, 125.43 54.16, 135.44 64.56 C 145.46 74.95, 160.64 88.75, 160.07 100.00 Z" fill="#2B5240" />
  <path id="blob-5" d="M 157.97 100.00 C 158.00 112.96, 148.60 128.39, 138.94 138.94 C 129.27 149.48, 113.43 162.83, 100.00 163.28 C 86.57 163.73, 69.43 152.21, 58.34 141.66 C 47.25 131.11, 34.62 115.06, 33.45 100.00 C 32.28 84.94, 40.23 59.66, 51.32 51.32 C 62.41 42.98, 85.42 48.31, 100.00 49.96 C 114.58 51.61, 129.13 52.86, 138.80 61.20 C 148.46 69.54, 157.95 87.04, 157.97 100.00 Z" fill="#2B5240" />
  <path id="blob-6" d="M 156.28 100.00 C 157.69 112.14, 150.01 130.21, 140.63 140.63 C 131.25 151.05, 114.51 161.57, 100.00 162.54 C 85.49 163.51, 60.78 156.87, 53.55 146.45 C 46.31 136.03, 53.66 112.56, 56.59 100.00 C 59.52 87.44, 63.88 81.65, 71.12 71.12 C 78.35 60.58, 89.82 37.35, 100.00 36.80 C 110.18 36.25, 122.83 57.26, 132.21 67.79 C 141.59 78.33, 154.88 87.86, 156.28 100.00 Z" fill="#2B5240" />
  <path id="blob-7" d="M 147.91 100.00 C 149.40 112.27, 149.27 133.84, 141.29 141.29 C 133.30 148.73, 115.10 143.34, 100.00 144.68 C 84.90 146.02, 62.05 156.78, 50.67 149.33 C 39.29 141.88, 31.62 116.33, 31.73 100.00 C 31.84 83.67, 39.97 62.32, 51.35 51.35 C 62.73 40.37, 86.50 31.43, 100.00 34.15 C 113.50 36.87, 124.36 56.68, 132.35 67.65 C 140.33 78.63, 146.42 87.73, 147.91 100.00 Z" fill="#2B5240" />
</svg>