<svg xmlns="http://www.w3.org/2000/svg" viewBox="0 0 200 200"><path fill="#2b5240" d="M147 100c.1 14 3.2 33.8-4.6 42.4s-29.7 10.6-42.4 9.2-22.7-9.1-33.9-17.7-31-20.5-33-33.9 9.4-35.4 20.6-46.3S85.3 33.4 100 34a65 65 0 0 1 42 24c7.8 10.9 5 27.8 5 41.9"/><path fill="#2b5240" d="M167 100c.6 13-14.6 32.4-25.8 41.2a64 64 0 0 1-41.2 11.6 64 64 0 0 1-36-16.7C54 127.3 41.6 113.6 40 100s4.3-35 14.3-45.6 31.8-19 45.6-17.7 26.1 15.5 37.3 26S166.3 87 167 100"/><path fill="#2b5240" d="M156.5 100c.2 15.7.7 39.3-8.7 47.8s-32.9 4.5-47.8 3.4c-14.9-1-32.3-1-41.6-9.6S43 112.6 44.2 100s12.7-25.6 22-33.8S86.7 52.6 100 50.5c13.4-2 36.9-5 46.3 3.2s10 30.6 10.2 46.3"/><path fill="#2b5240" d="M160 100c-.5 11.3-18 22.4-28 32s-20.3 24.7-32 25.6-29.4-10.2-37.8-19.8A59 59 0 0 1 49.7 100c.5-12.1 7.1-24.4 15.5-34.8s23-27.4 34.8-27.6c11.7 0 25.4 16.6 35.4 27s25.2 24.2 24.7 35.4"/><path fill="#2b5240" d="M158 100c0 13-9.4 28.4-19 39-9.7 10.5-25.6 23.8-39 24.3s-30.6-11-41.7-21.6S34.6 115 33.5 100s6.7-40.3 17.8-48.7 34.1-3 48.7-1.3 29.1 2.9 38.8 11.2A60 60 0 0 1 158 100"/><path fill="#2b5240" d="M156.3 100c1.4 12.1-6.3 30.2-15.7 40.6s-26 21-40.6 22-39.2-5.7-46.4-16.2c-7.3-10.4 0-33.8 3-46.4S63.9 81.6 71 71.1 89.8 37.4 100 36.8s22.8 20.5 32.2 31 22.7 20 24 32.2"/><path fill="#2b5240" d="M148 100c1.4 12.3 1.3 33.8-6.7 41.3s-26.2 2-41.3 3.4-38 12-49.3 4.6-19-33-19-49.3S40 62.3 51.4 51.3 86.5 31.4 100 34.2s24.4 22.5 32.4 33.4c8 11 14 20.1 15.5 32.4"/></svg>